<svg width="112" height="25" viewBox="0 0 112 25" fill="none" xmlns="http://www.w3.org/2000/svg">
<path fill-rule="evenodd" clip-rule="evenodd" d="M21.2148 3.448C21.3208 3.52556 21.4262 3.60597 21.5302 3.6878C22.1524 4.18235 22.7294 4.726 23.2618 5.32231C23.6988 5.81117 24.1054 6.33275 24.4823 6.89135C25.3188 8.13591 25.9389 9.48791 26.3271 10.9488L27.3757 14.8867C27.7675 16.3582 27.8679 17.7095 27.6918 18.9484C27.5143 20.1823 27.0972 21.2468 26.4431 22.1391C25.789 23.0357 24.9122 23.7331 23.8191 24.239C22.7259 24.745 21.4609 24.9997 20.0198 24.9997H8.2643C8.19782 24.9997 8.13065 24.9969 8.06348 24.9912L8.58673 24.0582L11.4123 19.4479H18.2457C18.9627 19.4479 19.5906 19.3269 20.1202 19.095C20.6491 18.8651 21.0734 18.5343 21.3859 18.1101C21.6984 17.6861 21.8894 17.1787 21.9622 16.5838C22.0378 15.9882 21.9778 15.3243 21.7812 14.5871L20.8924 11.247C20.548 9.95325 19.7942 8.64394 18.6198 7.71892L18.6042 7.70753L21.2148 3.448Z" fill="white"/>
<path fill-rule="evenodd" clip-rule="evenodd" d="M5.62077 21.5633L0.088691 2.19582C0.00194574 1.89224 -0.0221921 1.60706 0.0208034 1.33886C0.0615359 1.07066 0.156578 0.835728 0.306685 0.634049C0.462827 0.433786 0.664227 0.27952 0.91692 0.164881C1.17188 0.0566116 1.46681 0 1.79644 0H14.3368C15.8749 0 17.3653 0.254752 18.8212 0.753642C19.1884 0.88031 19.4064 0.965939 19.712 1.09827C19.3559 1.70683 18.8679 2.5277 18.5126 3.13416L6.71226 23.2758C6.59759 23.1669 6.48898 23.0522 6.38639 22.932L13.9114 5.51962H6.91592L8.92614 12.5578L5.62077 21.5633Z" fill="white"/>
<path fill-rule="evenodd" clip-rule="evenodd" d="M112 5.80718H98.6108C97.8062 5.80718 97.2444 6.00551 96.9451 6.39365C96.6396 6.79032 96.5957 7.36968 96.8018 8.12393L101.2 24.1379H95.2481L90.8506 8.12393C90.5782 7.13367 90.4563 6.2337 90.5065 5.4496C90.5468 4.65626 90.7 3.96244 90.9724 3.36032C91.2439 2.75821 91.6014 2.23998 92.0494 1.82127C92.4938 1.39403 92.9938 1.05068 93.5377 0.7841C94.0788 0.5097 94.6514 0.319185 95.249 0.189805C95.8457 0.0611356 96.4228 0 96.9693 0H110.404L112 5.80718Z" fill="white"/>
<path fill-rule="evenodd" clip-rule="evenodd" d="M79.5183 13.6646H68.752C67.9452 13.6646 67.3853 13.909 67.0711 14.3896C66.759 14.8765 66.7035 15.4708 66.9008 16.1874C67.1105 16.9495 67.5308 17.5374 68.1578 17.9632C68.7849 18.3912 69.452 18.5966 70.1573 18.5966H80.8761C81.691 18.5966 82.253 18.3606 82.5621 17.8871C82.8756 17.4073 82.9319 16.8123 82.7346 16.0964L82.0652 13.6646H79.5183ZM88.4196 16.142C88.6425 16.9495 88.7309 17.8111 88.6966 18.7409C88.6651 19.6778 88.4327 20.5402 88.0001 21.3327C87.5704 22.1325 86.9068 22.7964 86.0064 23.3368C85.1032 23.8714 83.9075 24.1379 82.4028 24.1379H71.6365C70.8143 24.1379 69.8811 23.9922 68.8477 23.71C67.8136 23.4284 66.7949 22.9714 65.8061 22.338C64.8085 21.7067 63.9001 20.8835 63.0707 19.8613C62.2324 18.8404 61.6185 17.6049 61.2158 16.142C60.9952 15.3422 60.9023 14.465 60.9337 13.528C60.9659 12.5904 61.1983 11.7295 61.628 10.929C62.0599 10.1365 62.7294 9.46534 63.6253 8.93146C64.5279 8.39833 65.7293 8.12393 67.226 8.12393H80.5378L80.5027 7.99455C80.2929 7.23178 79.8888 6.63392 79.2837 6.1882C78.6793 5.74249 78.0099 5.51713 77.2732 5.51713H64.1654L62.6453 0H75.7532C76.5841 0 77.51 0.14573 78.5434 0.425817C79.5841 0.709458 80.5962 1.16513 81.5857 1.79782C82.5818 2.4312 83.4903 3.2544 84.3204 4.27452C85.158 5.29676 85.7719 6.53085 86.1752 7.99455L88.4196 16.142Z" fill="white"/>
<path fill-rule="evenodd" clip-rule="evenodd" d="M39.5379 10.4713H50.1729C50.9707 10.4713 51.523 10.2274 51.8342 9.74827C52.1424 9.25921 52.1973 8.66491 52.0024 7.94835C51.7945 7.18628 51.3858 6.59198 50.7816 6.16546C50.1679 5.73111 49.5217 5.51713 48.8251 5.51713H38.1892C37.385 5.51713 36.8298 5.75315 36.5295 6.24152C36.2183 6.72136 36.1656 7.32348 36.3606 8.04004L37.0218 10.4713H39.5379ZM57.6185 7.99455C57.8365 8.79499 57.926 9.66301 57.8921 10.5935C57.8589 11.524 57.6293 12.3849 57.2041 13.1846C56.7774 13.9773 56.1161 14.6477 55.2324 15.1822C54.34 15.7154 53.1532 15.9898 51.6746 15.9898H38.5235L38.5654 16.142C38.7769 16.9189 39.1841 17.5189 39.792 17.9483C40.3999 18.3783 41.0677 18.5966 41.7954 18.5966H56.415C57.1925 20.9055 58.5425 22.9131 60.0139 24.0725L60.0312 24.1379H43.2566C42.4372 24.1379 41.5218 23.9936 40.493 23.71C39.4729 23.4299 38.473 22.9714 37.4954 22.338C36.5107 21.7067 35.6133 20.8835 34.7867 19.8613C33.9666 18.8404 33.3593 17.6049 32.9609 16.142L30.7437 7.99455C30.5243 7.18628 30.4369 6.32541 30.4701 5.39487C30.5019 4.45793 30.7315 3.59705 31.1581 2.80442C31.5834 2.00397 32.2382 1.34071 33.1291 0.799739C34.0207 0.26658 35.2025 0 36.6876 0H47.3234C48.1363 0 49.0583 0.144308 50.0791 0.425817C51.0999 0.708036 52.0991 1.16513 53.0838 1.79782C54.0614 2.4312 54.9667 3.2544 55.7862 4.27452C56.6135 5.29676 57.2207 6.53085 57.6185 7.99455Z" fill="white"/>
</svg>
