<svg width="32" height="32" viewBox="0 0 32 32" fill="none" xmlns="http://www.w3.org/2000/svg">
<path d="M25.697 18.9091H23.7576V16C23.7576 15.7428 23.6554 15.4962 23.4736 15.3143C23.2917 15.1325 23.0451 15.0303 22.7879 15.0303H16.9697V13.0909H18.9091C19.1663 13.0909 19.4129 12.9887 19.5948 12.8069C19.7766 12.625 19.8788 12.3784 19.8788 12.1212V6.30303C19.8788 6.04585 19.7766 5.7992 19.5948 5.61735C19.4129 5.4355 19.1663 5.33333 18.9091 5.33333H13.0909C12.8337 5.33333 12.5871 5.4355 12.4052 5.61735C12.2234 5.7992 12.1212 6.04585 12.1212 6.30303V12.1212C12.1212 12.3784 12.2234 12.625 12.4052 12.8069C12.5871 12.9887 12.8337 13.0909 13.0909 13.0909H15.0303V15.0303H9.21213C8.95495 15.0303 8.70831 15.1325 8.52645 15.3143C8.3446 15.4962 8.24243 15.7428 8.24243 16V18.9091H6.30304C6.04586 18.9091 5.79921 19.0113 5.61736 19.1931C5.43551 19.375 5.33334 19.6216 5.33334 19.8788V25.697C5.33334 25.9541 5.43551 26.2008 5.61736 26.3826C5.79921 26.5645 6.04586 26.6667 6.30304 26.6667H12.1212C12.3784 26.6667 12.625 26.5645 12.8069 26.3826C12.9888 26.2008 13.0909 25.9541 13.0909 25.697V19.8788C13.0909 19.6216 12.9888 19.375 12.8069 19.1931C12.625 19.0113 12.3784 18.9091 12.1212 18.9091H10.1818V16.9697H21.8182V18.9091H19.8788C19.6216 18.9091 19.375 19.0113 19.1931 19.1931C19.0113 19.375 18.9091 19.6216 18.9091 19.8788V25.697C18.9091 25.9541 19.0113 26.2008 19.1931 26.3826C19.375 26.5645 19.6216 26.6667 19.8788 26.6667H25.697C25.9542 26.6667 26.2008 26.5645 26.3827 26.3826C26.5645 26.2008 26.6667 25.9541 26.6667 25.697V19.8788C26.6667 19.6216 26.5645 19.375 26.3827 19.1931C26.2008 19.0113 25.9542 18.9091 25.697 18.9091ZM11.1515 20.8485V24.7273H7.27274V20.8485H11.1515ZM14.0606 11.1515V7.27273H17.9394V11.1515H14.0606ZM24.7273 24.7273H20.8485V20.8485H24.7273V24.7273Z" fill="white"/>
</svg>
