<svg width="20" height="20" viewBox="0 0 20 20" fill="none" xmlns="http://www.w3.org/2000/svg">
<path d="M5.78325 4.16677C5.78303 4.6088 5.60723 5.03263 5.29451 5.34504C4.98179 5.65744 4.55778 5.83282 4.11575 5.8326C3.67373 5.83238 3.24989 5.65657 2.93749 5.34386C2.62508 5.03114 2.4497 4.60713 2.44992 4.1651C2.45014 3.72307 2.62595 3.29924 2.93867 2.98683C3.25138 2.67443 3.67539 2.49905 4.11742 2.49927C4.55945 2.49949 4.98328 2.6753 5.29569 2.98801C5.60809 3.30073 5.78348 3.72474 5.78325 4.16677ZM5.83325 7.06677H2.49992V17.5001H5.83325V7.06677ZM11.0999 7.06677H7.78325V17.5001H11.0666V12.0251C11.0666 8.9751 15.0416 8.69177 15.0416 12.0251V17.5001H18.3333V10.8918C18.3333 5.7501 12.4499 5.94177 11.0666 8.46677L11.0999 7.06677Z" fill="white"/>
</svg>
