<svg width="90" height="20" viewBox="0 0 90 20" fill="none" xmlns="http://www.w3.org/2000/svg">
<path fill-rule="evenodd" clip-rule="evenodd" d="M17.0475 2.75879C17.1327 2.82084 17.2174 2.88517 17.3009 2.95063C17.801 3.34627 18.2646 3.78119 18.6925 4.25823C19.0436 4.64932 19.3703 5.06659 19.6732 5.51346C20.3454 6.50911 20.8437 7.5907 21.1556 8.75939L21.9983 11.9097C22.313 13.087 22.3938 14.168 22.2523 15.1591C22.1096 16.1462 21.7744 16.9978 21.2488 17.7116C20.7232 18.4289 20.0186 18.9868 19.1402 19.3916C18.2618 19.7963 17.2453 20.0001 16.0872 20.0001H6.64087C6.58745 20.0001 6.53347 19.9978 6.47949 19.9933L6.89996 19.2469L9.17048 15.5587H14.6616C15.2378 15.5587 15.7423 15.4619 16.1679 15.2763C16.5929 15.0925 16.9339 14.8278 17.185 14.4885C17.4361 14.1492 17.5896 13.7433 17.6481 13.2674C17.7089 12.791 17.6606 12.2598 17.5027 11.6701L16.7884 8.99794C16.5117 7.96298 15.906 6.91553 14.9622 6.17551L14.9497 6.1664L17.0475 2.75879Z" fill="#05CBBF"/>
<path fill-rule="evenodd" clip-rule="evenodd" d="M4.51668 17.2506L0.0712694 1.75665C0.00156354 1.51379 -0.0178329 1.28564 0.016717 1.07109C0.0494485 0.856528 0.125822 0.66858 0.246443 0.507238C0.371914 0.347028 0.533753 0.223615 0.73681 0.131904C0.941685 0.0452892 1.17869 0 1.44357 0H11.5206C12.7566 0 13.9543 0.203801 15.1241 0.602912C15.4193 0.704246 15.5944 0.772749 15.84 0.878611C15.5538 1.36546 15.1617 2.02216 14.8762 2.50732L5.39377 18.6206C5.30163 18.5335 5.21435 18.4417 5.13191 18.3455L11.1788 4.41569H5.55743L7.17278 10.0462L4.51668 17.2506Z" fill="#3E525D"/>
<path fill-rule="evenodd" clip-rule="evenodd" d="M89.9999 4.64573H79.241C78.5944 4.64573 78.143 4.8044 77.9025 5.1149C77.657 5.43224 77.6217 5.89573 77.7873 6.49913L81.3218 19.3103H76.5388L73.0051 6.49913C72.7862 5.70692 72.6883 4.98695 72.7286 4.35967C72.761 3.725 72.8841 3.16995 73.103 2.68825C73.3212 2.20656 73.6084 1.79198 73.9684 1.45702C74.3256 1.11522 74.7273 0.840542 75.1644 0.627278C75.5992 0.407759 76.0593 0.255347 76.5395 0.151844C77.0191 0.0489084 77.4827 0 77.9219 0H88.7176L89.9999 4.64573Z" fill="#05CBBF"/>
<path fill-rule="evenodd" clip-rule="evenodd" d="M63.8988 10.9316H55.2473C54.5989 10.9316 54.1491 11.1272 53.8966 11.5117C53.6458 11.9012 53.6012 12.3766 53.7597 12.9499C53.9282 13.5595 54.2659 14.0299 54.7698 14.3705C55.2737 14.7129 55.8098 14.8773 56.3765 14.8773H64.9899C65.6447 14.8773 66.0963 14.6884 66.3447 14.3097C66.5966 13.9258 66.6418 13.4498 66.4833 12.8771L65.9454 10.9316H63.8988ZM71.0516 12.9135C71.2307 13.5595 71.3017 14.2488 71.2742 14.9927C71.2489 15.7422 71.0621 16.4321 70.7145 17.0661C70.3692 17.7059 69.836 18.2371 69.1124 18.6694C68.3866 19.097 67.4258 19.3103 66.2167 19.3103H57.5652C56.9045 19.3103 56.1546 19.1937 55.3242 18.9679C54.4932 18.7427 53.6746 18.377 52.88 17.8703C52.0784 17.3653 51.3484 16.7068 50.6819 15.889C50.0083 15.0723 49.515 14.0839 49.1915 12.9135C49.0141 12.2737 48.9395 11.572 48.9647 10.8224C48.9906 10.0723 49.1773 9.38355 49.5227 8.74321C49.8697 8.10914 50.4077 7.57225 51.1276 7.14515C51.8529 6.71864 52.8184 6.49913 54.0211 6.49913H64.718L64.6898 6.39562C64.5212 5.78541 64.1965 5.30713 63.7102 4.95055C63.2246 4.59398 62.6867 4.41369 62.0947 4.41369H51.5616L50.3401 0H60.8732C61.5409 0 62.285 0.116584 63.1154 0.340653C63.9516 0.567565 64.7649 0.9321 65.5601 1.43825C66.3605 1.94496 67.0905 2.60351 67.7576 3.41961C68.4307 4.2374 68.9239 5.22466 69.2481 6.39562L71.0516 12.9135Z" fill="#05CBBF"/>
<path fill-rule="evenodd" clip-rule="evenodd" d="M31.7713 8.377H40.3173C40.9584 8.377 41.4022 8.1819 41.6523 7.79859C41.9 7.40735 41.9441 6.93191 41.7874 6.35866C41.6204 5.74901 41.292 5.27357 40.8064 4.93235C40.3133 4.58487 39.794 4.41369 39.2342 4.41369H30.6876C30.0413 4.41369 29.5952 4.60251 29.3539 4.9932C29.1038 5.37708 29.0615 5.85876 29.2181 6.43202L29.7495 8.377H31.7713ZM46.3004 6.39562C46.4755 7.03597 46.5475 7.73039 46.5203 8.4748C46.4935 9.21921 46.3091 9.90789 45.9674 10.5477C45.6245 11.1818 45.0931 11.7181 44.383 12.1457C43.6659 12.5723 42.7122 12.7918 41.5241 12.7918H30.9562L30.9898 12.9135C31.1598 13.5351 31.4871 14.0151 31.9755 14.3586C32.464 14.7026 33.0006 14.8773 33.5854 14.8773H45.3333C45.9581 16.7244 47.0429 18.3304 48.2253 19.2579L48.2392 19.3103H34.7596C34.1012 19.3103 33.3655 19.1948 32.5388 18.9679C31.7191 18.7439 30.9156 18.377 30.1301 17.8703C29.3388 17.3653 28.6177 16.7068 27.9534 15.889C27.2944 15.0723 26.8064 14.0839 26.4862 12.9135L24.7046 6.39562C24.5283 5.74901 24.4581 5.06031 24.4847 4.31588C24.5103 3.56633 24.6947 2.87763 25.0376 2.24353C25.3793 1.60317 25.9055 1.07257 26.6214 0.639789C27.3379 0.213263 28.2875 0 29.4809 0H38.0275C38.6808 0 39.4217 0.115446 40.242 0.340653C41.0622 0.566427 41.8652 0.9321 42.6565 1.43825C43.442 1.94496 44.1695 2.60351 44.828 3.41961C45.4928 4.2374 45.9807 5.22466 46.3004 6.39562Z" fill="#05CBBF"/>
</svg>
