<svg width="20" height="20" viewBox="0 0 20 20" fill="none" xmlns="http://www.w3.org/2000/svg">
<path d="M18.4683 4.71327C17.8321 4.99468 17.1574 5.1795 16.4666 5.26161C17.1947 4.82613 17.7397 4.14078 18 3.33327C17.3166 3.73994 16.5675 4.02494 15.7866 4.17911C15.2621 3.61792 14.5669 3.24574 13.8091 3.12043C13.0512 2.99511 12.2732 3.12368 11.596 3.48615C10.9188 3.84862 10.3803 4.42467 10.0642 5.12477C9.74815 5.82486 9.67224 6.60976 9.84828 7.35744C8.46254 7.28798 7.1069 6.92787 5.86936 6.30049C4.63182 5.67311 3.54006 4.79248 2.66495 3.71577C2.35519 4.24781 2.19241 4.85263 2.19329 5.46827C2.19329 6.6766 2.80829 7.7441 3.74329 8.3691C3.18996 8.35169 2.64881 8.20226 2.16495 7.93327V7.9766C2.16512 8.78135 2.44359 9.56128 2.95316 10.1842C3.46272 10.807 4.17202 11.2345 4.96079 11.3941C4.44713 11.5333 3.90854 11.5538 3.38579 11.4541C3.60817 12.1468 4.04162 12.7526 4.62545 13.1867C5.20927 13.6208 5.91423 13.8614 6.64162 13.8749C5.91869 14.4427 5.09093 14.8624 4.20569 15.1101C3.32044 15.3577 2.39506 15.4285 1.48245 15.3183C3.07553 16.3428 4.93003 16.8867 6.82412 16.8849C13.235 16.8849 16.7408 11.5741 16.7408 6.96827C16.7408 6.81827 16.7366 6.6666 16.73 6.51827C17.4123 6.02508 18.0013 5.41412 18.4691 4.71411L18.4683 4.71327Z" fill="white"/>
</svg>
