<svg width="24" height="24" viewBox="0 0 24 24" fill="none" xmlns="http://www.w3.org/2000/svg">
<path d="M22.2083 10.5416H13.4583V1.79165C13.4583 1.40487 13.3047 1.03394 13.0312 0.760449C12.7577 0.486959 12.3868 0.333313 12 0.333313C11.6132 0.333313 11.2423 0.486959 10.9688 0.760449C10.6953 1.03394 10.5416 1.40487 10.5416 1.79165V10.5416H1.79165C1.40487 10.5416 1.03394 10.6953 0.760449 10.9688C0.486959 11.2423 0.333313 11.6132 0.333313 12C0.333313 12.3868 0.486959 12.7577 0.760449 13.0312C1.03394 13.3047 1.40487 13.4583 1.79165 13.4583H10.5416V22.2083C10.5416 22.5951 10.6953 22.966 10.9688 23.2395C11.2423 23.513 11.6132 23.6666 12 23.6666C12.3868 23.6666 12.7577 23.513 13.0312 23.2395C13.3047 22.966 13.4583 22.5951 13.4583 22.2083V13.4583H22.2083C22.5951 13.4583 22.966 13.3047 23.2395 13.0312C23.513 12.7577 23.6666 12.3868 23.6666 12C23.6666 11.6132 23.513 11.2423 23.2395 10.9688C22.966 10.6953 22.5951 10.5416 22.2083 10.5416Z" fill="#B5B9C2"/>
</svg>
